<svg xmlns="http://www.w3.org/2000/svg" viewBox="0 0 200 200" fill="none">
  <!-- Background circle with gradient -->
  <defs>
    <linearGradient id="bgGradient" x1="0%" y1="0%" x2="100%" y2="100%">
      <stop offset="0%" stop-color="#0F172A" />
      <stop offset="100%" stop-color="#0F3A5C" />
    </linearGradient>
    <filter id="glow" x="-20%" y="-20%" width="140%" height="140%">
      <feGaussianBlur stdDeviation="5" result="blur" />
      <feComposite in="SourceGraphic" in2="blur" operator="over" />
    </filter>
  </defs>
  
  <!-- Main circle with gradient background -->
  <circle cx="100" cy="100" r="90" fill="url(#bgGradient)" stroke="#10B981" stroke-width="5"/>
  
  <!-- Crypto price chart stylized icon -->
  <path d="M 70 70 L 130 70 L 130 130 L 70 130 Z" fill="#10B981" opacity="0.2"/>
  
  <!-- Horizontal and vertical lines representing price chart axes -->
  <path d="M 45 100 L 155 100" stroke="#10B981" stroke-width="5" stroke-linecap="round" filter="url(#glow)"/>
  <path d="M 65 70 L 135 70" stroke="#10B981" stroke-width="5" stroke-linecap="round"/>
  <path d="M 65 130 L 135 130" stroke="#10B981" stroke-width="5" stroke-linecap="round"/>
  <path d="M 100 55 L 100 145" stroke="#10B981" stroke-width="5" stroke-linecap="round" filter="url(#glow)"/>
  
  <!-- Diagonal lines representing price movements -->
  <path d="M 70 85 L 130 55" stroke="#10B981" stroke-width="5" stroke-linecap="round"/>
  <path d="M 70 115 L 130 145" stroke="#10B981" stroke-width="5" stroke-linecap="round"/>
  
  <!-- Crossing lines for X pattern -->
  <path d="M 70 55 L 130 145" stroke="#10B981" stroke-width="5" stroke-linecap="round" filter="url(#glow)"/>
  <path d="M 130 55 L 70 145" stroke="#10B981" stroke-width="5" stroke-linecap="round" filter="url(#glow)"/>
  
  <!-- Small dots at key intersections -->
  <circle cx="70" cy="70" r="3" fill="#FFFFFF"/>
  <circle cx="130" cy="70" r="3" fill="#FFFFFF"/>
  <circle cx="70" cy="130" r="3" fill="#FFFFFF"/>
  <circle cx="130" cy="130" r="3" fill="#FFFFFF"/>
  <circle cx="100" cy="100" r="4" fill="#FFFFFF"/>
</svg>